<?xml version="1.0"?>
<svg width="640" height="480" xmlns="http://www.w3.org/2000/svg" xmlns:svg="http://www.w3.org/2000/svg" xmlns:xlink="http://www.w3.org/1999/xlink">
 <!-- Created with SVG-edit - http://svg-edit.googlecode.com/ -->
 <defs>
  <symbol viewBox="0 0 541.6 78" y="0px" x="0px" id="svg_2" xmlns:xlink="http://www.w3.org/1999/xlink" xmlns="http://www.w3.org/2000/svg">
   <g>
    <g>
     <path d="m14.2,33l18.8,-18.8l-14.200001,-14.1c0,0 -5.4,-1.1 -12.599999,6.1c-7.2,7.2 -6.1,12.599999 -6.1,12.599999l14.1,14.200001z" fill="#33CD99"/>
     <path d="m39,57.799999l13.700001,-13.700001l5.099998,-5.099998l0,0l0,0l20.200001,-20.200001c0,0 1.099998,-5.4 -6.099998,-12.599999c-7.300003,-7.2 -12.700001,-6.1 -12.700001,-6.1l-25.299999,25.199999l-28.900002,28.900002l-5,23.799999l23.799999,-5.099998l15.200001,-15.100002l0,0l0,0zm-16.6,12.299999l-8.099999,1.700005c-0.8,-1.5 -1.7,-2.900002 -3.5,-4.700005c-1.7,-1.699997 -3.2,-2.699997 -4.7,-3.5l1.8,-8.099998l2.3,-2.299999c0,0 4.400001,0.099998 9.400001,5.099998c5,5 5.1,9.399998 5.1,9.399998l-2.300001,2.400002z" fill="#33CD99"/>
     <path d="m72.900002,54.200001l-9.5,-9.5l-18.700001,18.799999l9.5,9.5l23.799999,5l-5.099998,-23.799999zm-5.700005,12.999996c-1.699997,1.700005 -2.699997,3.200005 -3.499996,4.700005l-8.100002,-1.800003l-2.299999,-2.299995c0,0 0.100002,-4.400002 5.100002,-9.400002c5,-5 9.400002,-5.100002 9.400002,-5.100002l2.299995,2.299999l1.700005,8.100002c-1.400002,0.799999 -2.900002,1.700001 -4.600006,3.499996z" fill="#33CD99"/>
    </g>
    <g>
     <path d="m124.900002,11.4c0,-0.799999 0.699997,-1.5 1.5,-1.5l1.999992,0l33.600006,35.699999l0.100006,0l0,-33.299998c0,-0.8 0.599991,-1.5 1.5,-1.5l7.399994,0c0.800003,0 1.5,0.7 1.5,1.5l0,54.2c0,0.800003 -0.699997,1.5 -1.5,1.5l-1.899994,0l-33.700012,-37l-0.099991,0l0,34.699997c0,0.800003 -0.600006,1.5 -1.5,1.5l-7.300003,0c-0.800003,0 -1.5,-0.699997 -1.5,-1.5l0,-54.299997l-0.099998,0z" fill="#FFFFFF"/>
     <path d="m212.199997,10c16.100006,0 29,13 29,29.099998c0,16.100002 -12.899994,28.900002 -29,28.900002c-16.099991,0 -28.899994,-12.799999 -28.899994,-28.900002c-0.100006,-16.099998 12.699997,-29.099998 28.899994,-29.099998zm0,47.5c10.199997,0 18.5,-8.299999 18.5,-18.5s-8.399994,-18.6 -18.5,-18.6c-10.199997,0 -18.5,8.5 -18.5,18.6s8.300003,18.5 18.5,18.5z" fill="#FFFFFF"/>
     <path d="m258.799988,20.5l-12.300003,0c-0.899994,0 -1.5,-0.700001 -1.5,-1.5l0,-6.6c0,-0.799999 0.600006,-1.5 1.5,-1.5l35.199997,0c0.899994,0 1.5,0.700001 1.5,1.5l0,6.6c0,0.799999 -0.600006,1.5 -1.5,1.5l-12.299988,0l0,45.199997c0,0.800003 -0.700012,1.5 -1.5,1.5l-7.5,0c-0.800018,0 -1.5,-0.699997 -1.5,-1.5l0,-45.199997l-0.100006,0z" fill="#FFFFFF"/>
     <path d="m291.600006,12.3c0,-0.8 0.600006,-1.5 1.5,-1.5l32.800018,0c0.899994,0 1.5,0.7 1.5,1.5l0,6.599999c0,0.800001 -0.600006,1.5 -1.5,1.5l-23.900024,0l0,13.199999l20,0c0.799988,0 1.5,0.700001 1.5,1.5l0,6.700001c0,0.900002 -0.700012,1.5 -1.5,1.5l-19.899994,0l0,14.100002l23.899994,0c0.899994,0 1.5,0.699997 1.5,1.5l0,6.599998c0,0.800003 -0.600006,1.5 -1.5,1.5l-32.799988,0c-0.900024,0 -1.5,-0.699997 -1.5,-1.5l0,-53.2l-0.100006,0z" fill="#FFFFFF"/>
     <path d="m339,11.4c0,-0.799999 0.700012,-1.5 1.5,-1.5l2,0l33.5,35.6l0.100006,0l0,-33.2c0,-0.8 0.600006,-1.5 1.5,-1.5l7.399994,0c0.799988,0 1.5,0.7 1.5,1.5l0,54.2c0,0.800003 -0.700012,1.5 -1.5,1.5l-1.899994,0l-33.700012,-37l-0.100006,0l0,34.699997c0,0.800003 -0.599976,1.5 -1.5,1.5l-7.299988,0c-0.799988,0 -1.5,-0.699997 -1.5,-1.5l0,-54.299997z" fill="#FFFFFF"/>
     <path d="m426.299988,10c16.100006,0 29,13 29,29.099998c0,16.100002 -12.899994,28.900002 -29,28.900002c-16.100006,0 -28.899994,-12.799999 -28.899994,-28.900002c-0.100006,-16.099998 12.800018,-29.099998 28.899994,-29.099998zm0,47.5c10.200012,0 18.5,-8.299999 18.5,-18.5s-8.399994,-18.6 -18.5,-18.6c-10.200012,0 -18.5,8.5 -18.5,18.6s8.300018,18.5 18.5,18.5z" fill="#FFFFFF"/>
     <path d="m472.899994,20.5l-12.300018,0c-0.899994,0 -1.5,-0.700001 -1.5,-1.5l0,-6.6c0,-0.799999 0.600006,-1.5 1.5,-1.5l35.200012,0c0.899994,0 1.5,0.700001 1.5,1.5l0,6.6c0,0.799999 -0.600006,1.5 -1.5,1.5l-12.299988,0l0,45.199997c0,0.800003 -0.700012,1.5 -1.5,1.5l-7.5,0c-0.800018,0 -1.5,-0.699997 -1.5,-1.5l0,-45.199997l-0.100006,0z" fill="#FFFFFF"/>
     <path d="m505.700012,12.3c0,-0.8 0.600006,-1.5 1.5,-1.5l32.799988,0c0.900024,0 1.5,0.7 1.5,1.5l0,6.599999c0,0.800001 -0.599976,1.5 -1.5,1.5l-23.899963,0l0,13.199999l19.899963,0c0.799988,0 1.5,0.700001 1.5,1.5l0,6.700001c0,0.900002 -0.700012,1.5 -1.5,1.5l-19.899963,0l0,14.100002l23.899963,0c0.900024,0 1.5,0.699997 1.5,1.5l0,6.599998c0,0.800003 -0.599976,1.5 -1.5,1.5l-32.799988,0c-0.899994,0 -1.5,-0.699997 -1.5,-1.5l0,-53.2z" fill="#FFFFFF"/>
    </g>
   </g>
  </symbol>
 </defs>
 <g>
  <title>Layer 1</title>
  <use style="vector-effect: non-scaling-stroke;" fill="#000000" x="3.555557" y="-20.296295" xlink:href="#svg_2" id="svg_3"/>
  <rect id="svg_5" height="3" width="58" y="195" x="316" stroke-width="5" stroke="#000000" fill="#FF0000"/>
  <rect id="svg_6" height="299" width="299" y="132" x="127" stroke-linecap="null" stroke-linejoin="null" stroke-dasharray="null" stroke-width="5" stroke="#ffffff" fill="#ffffff"/>
  <rect stroke="#ffffff" id="svg_8" height="262" width="258.999993" y="96" x="377" stroke-linecap="null" stroke-linejoin="null" stroke-dasharray="null" stroke-width="5" fill="#ffffff"/>
 </g>
</svg>